# xmcd CD database file
#
# Track frame offsets:
#	150
#	74428
#	145176
#	208385
#	259803
#
# Disc length: 4279 seconds
#
# Revision: 0
# Processed by: cddbd v1.5.2PL0 Copyright (c) Steve Scherf et al.
# Submitted via: CDex 1.51
#
DISCID=5110b505
DTITLE=Chris Potter Underground  - At The Village Vanguard, September 16, 2008
DYEAR=2008
DGENRE=Jazz
TTITLE0=Chris Potter Underground - Facing East (Potter)
TTITLE1=Chris Potter Underground - Viva Las Vilnius (Potter)
TTITLE2=Chris Potter Underground - Pop Tune #1 (Potter)
TTITLE3=Chris Potter Underground - It Ain't Me Babe (Dylan)
TTITLE4=Chris Potter Underground - Untitled Original (Potter)
EXTD=YEAR: 2008
EXTT0=
EXTT1=
EXTT2=
EXTT3=
EXTT4=
PLAYORDER=
